<svg xmlns="http://www.w3.org/2000/svg" version="1.1" xmlns:xlink="http://www.w3.org/1999/xlink" width="1000" height="1000"><metadata><rdf:RDF xmlns:rdf="http://www.w3.org/1999/02/22-rdf-syntax-ns#" xmlns:dc="http://purl.org/dc/elements/1.1/"><rdf:Description><dc:creator>RealFaviconGenerator</dc:creator><dc:source>https://realfavicongenerator.net</dc:source></rdf:Description></rdf:RDF></metadata><g clip-path="url(#SvgjsClipPath1061)"><rect width="1000" height="1000" fill="#ffffff"></rect><g transform="matrix(5,0,0,5,0,0)"><svg xmlns="http://www.w3.org/2000/svg" version="1.1" xmlns:xlink="http://www.w3.org/1999/xlink" viewBox="0 0 200 200" width="200" height="200"><rect width="200" height="200" fill="url('#gradient')"></rect><defs><linearGradient id="gradient" gradientTransform="rotate(45 0.5 0.5)"><stop offset="0%" stop-color="#ceaa96"></stop><stop offset="100%" stop-color="#ceaa96"></stop></linearGradient><clipPath id="SvgjsClipPath1061"><rect width="1000" height="1000" x="0" y="0" rx="500" ry="500"></rect></clipPath></defs><g><g fill="#104fe4" transform="matrix(3.2027801911381406,0,0,3.2027801911381406,10.096674336054136,123.70291632412828)" stroke="#c8512e" stroke-width="0"><path d="M9.98 0L9.15-2.66L4.45-2.66L3.63 0L-0.03 0L5.19-14.22L8.41-14.22L13.66 0L9.98 0ZM6.80-10.23L5.27-5.30L8.33-5.30L6.80-10.23ZM23.79 0L20.50 0Q20.32-0.32 20.19-0.95L20.19-0.95Q19.28 0.20 17.65 0.20L17.65 0.20Q16.15 0.20 15.11-0.71Q14.06-1.61 14.06-2.98L14.06-2.98Q14.06-4.70 15.33-5.58Q16.60-6.46 19.02-6.46L19.02-6.46L20.04-6.46L20.04-7.01Q20.04-8.47 18.78-8.47L18.78-8.47Q17.61-8.47 17.61-7.31L17.61-7.31L14.32-7.31Q14.32-8.85 15.62-9.80Q16.92-10.76 18.95-10.76Q20.97-10.76 22.14-9.78Q23.31-8.79 23.34-7.07L23.34-7.07L23.34-2.39Q23.36-0.94 23.79-0.17L23.79-0.17L23.79 0ZM18.44-2.15L18.44-2.15Q19.05-2.15 19.46-2.41Q19.86-2.68 20.04-3.01L20.04-3.01L20.04-4.70L19.08-4.70Q17.36-4.70 17.36-3.15L17.36-3.15Q17.36-2.71 17.67-2.43Q17.97-2.15 18.44-2.15ZM30.69-2.97L30.69-2.97Q30.69-3.39 30.25-3.64Q29.81-3.90 28.58-4.17Q27.35-4.44 26.55-4.89Q25.75-5.33 25.33-5.97Q24.91-6.60 24.91-7.42L24.91-7.42Q24.91-8.88 26.11-9.82Q27.31-10.76 29.26-10.76L29.26-10.76Q31.35-10.76 32.62-9.81Q33.89-8.87 33.89-7.32L33.89-7.32L30.59-7.32Q30.59-8.59 29.25-8.59L29.25-8.59Q28.73-8.59 28.38-8.31Q28.03-8.02 28.03-7.59L28.03-7.59Q28.03-7.15 28.46-6.88Q28.89-6.60 29.83-6.43Q30.77-6.25 31.48-6.01L31.48-6.01Q33.87-5.19 33.87-3.07L33.87-3.07Q33.87-1.62 32.58-0.71Q31.30 0.20 29.26 0.20L29.26 0.20Q27.90 0.20 26.84-0.29Q25.77-0.78 25.18-1.62Q24.58-2.46 24.58-3.39L24.58-3.39L27.66-3.39Q27.68-2.66 28.14-2.32Q28.61-1.98 29.35-1.98L29.35-1.98Q30.02-1.98 30.36-2.26Q30.69-2.53 30.69-2.97ZM38.62-15L38.62-9.43Q39.68-10.76 41.32-10.76L41.32-10.76Q43.07-10.76 43.96-9.73Q44.84-8.69 44.86-6.67L44.86-6.67L44.86 0L41.56 0L41.56-6.59Q41.56-7.43 41.22-7.83Q40.88-8.22 40.06-8.22L40.06-8.22Q39.04-8.22 38.62-7.58L38.62-7.58L38.62 0L35.33 0L35.33-15L38.62-15ZM53.09 0L52.99-1.14Q51.94 0.20 50.17 0.20L50.17 0.20Q48.43 0.20 47.53-0.82Q46.64-1.83 46.64-3.72L46.64-3.72L46.64-10.57L49.93-10.57L49.93-3.70Q49.93-2.34 51.25-2.34L51.25-2.34Q52.38-2.34 52.86-3.15L52.86-3.15L52.86-10.57L56.17-10.57L56.17 0L53.09 0Z"></path></g></g></svg></g></g></svg>